<svg width="1115" height="1503" viewBox="0 0 1115 1503" fill="none" xmlns="http://www.w3.org/2000/svg">
<g clip-path="url(#clip0_5_67)">
<mask id="mask0_5_67" style="mask-type:luminance" maskUnits="userSpaceOnUse" x="0" y="0" width="1115" height="1303">
<path d="M1115 0H0V1303H1115V0Z" fill="white"/>
</mask>
<g mask="url(#mask0_5_67)" transform="translate(0, 50)">
<path d="M546.847 1239.09C799.834 1239.09 1004.92 1208.89 1004.92 1171.63C1004.92 1134.38 799.834 1104.18 546.847 1104.18C293.86 1104.18 88.7739 1134.38 88.7739 1171.63C88.7739 1208.89 293.86 1239.09 546.847 1239.09Z" fill="#6D6D6D" fill-opacity="0.1"/>
<path d="M561.051 1239.09C814.038 1239.09 1019.12 1208.89 1019.12 1171.63C1019.12 1134.38 814.038 1104.18 561.051 1104.18C308.064 1104.18 102.978 1134.38 102.978 1171.63C102.978 1208.89 308.064 1239.09 561.051 1239.09Z" fill="#6D6D6D" fill-opacity="0.1"/>
</g>
<path fill-rule="evenodd" clip-rule="evenodd" d="M150.288 976.795C136.379 976.795 125 965.41 125 951.495V435.151H989V951.495C989 965.41 977.62 976.795 963.712 976.795H150.288Z" fill="#E4EBF7"/>
<path fill-rule="evenodd" clip-rule="evenodd" d="M989 440.191H125V312.366C125 298.407 136.311 287.091 150.262 287.091H963.737C977.69 287.091 989 298.407 989 312.366V440.191Z" fill="#253368"/>
<path fill-rule="evenodd" clip-rule="evenodd" d="M320.982 619.369C320.982 638.93 305.133 654.787 285.581 654.787C266.031 654.787 250.182 638.93 250.182 619.369C250.182 599.807 266.031 583.95 285.581 583.95C305.133 583.95 320.982 599.807 320.982 619.369Z" fill="#597EF7"/>
<path fill-rule="evenodd" clip-rule="evenodd" d="M509.529 619.369C509.529 638.93 493.68 654.787 474.128 654.787C454.578 654.787 438.728 638.93 438.728 619.369C438.728 599.807 454.578 583.95 474.128 583.95C493.68 583.95 509.529 599.807 509.529 619.369Z" fill="#597EF7"/>
<path fill-rule="evenodd" clip-rule="evenodd" d="M717.138 619.369C717.138 649.462 692.754 673.857 662.675 673.857C632.596 673.857 608.214 649.462 608.214 619.369C608.214 589.275 632.596 564.88 662.675 564.88C692.754 564.88 717.138 589.275 717.138 619.369Z" fill="white"/>
<path fill-rule="evenodd" clip-rule="evenodd" d="M698.076 619.369C698.076 638.93 682.227 654.787 662.675 654.787C643.124 654.787 627.275 638.93 627.275 619.369C627.275 599.807 643.124 583.95 662.675 583.95C682.227 583.95 698.076 599.807 698.076 619.369Z" fill="#FF7946"/>
<path fill-rule="evenodd" clip-rule="evenodd" d="M886.623 619.369C886.623 638.93 870.774 654.787 851.222 654.787C831.671 654.787 815.822 638.93 815.822 619.369C815.822 599.807 831.671 583.95 851.222 583.95C870.774 583.95 886.623 599.807 886.623 619.369Z" fill="#597EF7"/>
<path fill-rule="evenodd" clip-rule="evenodd" d="M320.982 800.562C320.982 820.124 305.133 835.981 285.581 835.981C266.031 835.981 250.182 820.124 250.182 800.562C250.182 781.001 266.031 765.144 285.581 765.144C305.133 765.144 320.982 781.001 320.982 800.562Z" fill="#597EF7"/>
<path fill-rule="evenodd" clip-rule="evenodd" d="M509.529 800.562C509.529 820.124 493.68 835.981 474.128 835.981C454.578 835.981 438.728 820.124 438.728 800.562C438.728 781.001 454.578 765.144 474.128 765.144C493.68 765.144 509.529 781.001 509.529 800.562Z" fill="#597EF7"/>
<path fill-rule="evenodd" clip-rule="evenodd" d="M698.076 800.562C698.076 820.124 682.227 835.981 662.675 835.981C643.124 835.981 627.275 820.124 627.275 800.562C627.275 781.001 643.124 765.144 662.675 765.144C682.227 765.144 698.076 781.001 698.076 800.562Z" fill="#597EF7"/>
<path fill-rule="evenodd" clip-rule="evenodd" d="M886.623 800.562C886.623 820.124 870.774 835.981 851.222 835.981C831.671 835.981 815.822 820.124 815.822 800.562C815.822 781.001 831.671 765.144 851.222 765.144C870.774 765.144 886.623 781.001 886.623 800.562Z" fill="#597EF7"/>
<path fill-rule="evenodd" clip-rule="evenodd" d="M261.183 374.769C248.098 374.769 237.393 364.058 237.393 350.968V237.855C237.393 224.765 248.098 214.054 261.183 214.054C274.267 214.054 284.972 224.765 284.972 237.855V350.968C284.972 364.058 274.267 374.769 261.183 374.769Z" fill="#E4EBF7"/>
<path fill-rule="evenodd" clip-rule="evenodd" d="M851.85 374.769C838.766 374.769 828.06 364.058 828.06 350.968V237.855C828.06 224.765 838.766 214.054 851.85 214.054C864.934 214.054 875.639 224.765 875.639 237.855V350.968C875.639 364.058 864.934 374.769 851.85 374.769Z" fill="#E4EBF7"/>
</g>
<defs>
<clipPath id="clip0_5_67">
<rect width="1115" height="1303" fill="white"/>
</clipPath>
</defs>
</svg>
