<svg width="1412" height="1226" viewBox="0 0 1412 1226" fill="none" xmlns="http://www.w3.org/2000/svg">
<path fill-rule="evenodd" clip-rule="evenodd" d="M1172.78 559.916C1170.09 559.916 1167.43 560.069 1164.81 560.359C1164.81 560.211 1164.82 560.064 1164.82 559.916C1164.82 479.566 1100.16 414.43 1020.39 414.43C961.255 414.43 910.427 450.243 888.092 501.511C882.428 500.528 876.605 500.01 870.662 500.01C814.359 500.01 768.717 545.988 768.717 602.706C768.717 659.424 814.359 705.402 870.662 705.402H1172.78C1212.66 705.402 1244.99 672.834 1244.99 632.659C1244.99 592.484 1212.66 559.916 1172.78 559.916Z" fill="#E4EBF7"/>
<path fill-rule="evenodd" clip-rule="evenodd" d="M978.178 653.535L954.941 676.014C952.011 678.847 947.143 678.602 944.122 675.469L919.872 650.313C916.851 647.179 916.776 642.297 919.705 639.463L942.942 616.985C945.872 614.151 950.74 614.396 953.761 617.53L978.012 642.685C981.032 645.819 981.107 650.701 978.178 653.535Z" fill="#FAAD14"/>
<path fill-rule="evenodd" clip-rule="evenodd" d="M1006.81 505.354L1007.38 537.708C1007.45 541.787 1003.95 545.186 999.6 545.262L964.695 545.873C960.347 545.949 956.731 542.674 956.66 538.595L956.096 506.241C956.025 502.162 959.525 498.762 963.873 498.686L998.778 498.076C1003.13 498 1006.74 501.275 1006.81 505.354Z" fill="#FAAD14"/>
<path fill-rule="evenodd" clip-rule="evenodd" d="M923.394 368.468L951.37 384.648C954.896 386.687 956.003 391.443 953.829 395.215L936.373 425.5C934.199 429.273 929.535 430.691 926.008 428.651L898.032 412.472C894.505 410.432 893.399 405.676 895.573 401.904L913.028 371.618C915.202 367.846 919.867 366.428 923.394 368.468Z" fill="#FAAD14"/>
<path fill-rule="evenodd" clip-rule="evenodd" d="M795.462 336.714L827.722 338.408C831.788 338.621 834.929 342.355 834.702 346.705L832.875 381.628C832.647 385.978 829.134 389.363 825.067 389.149L792.808 387.456C788.741 387.242 785.6 383.508 785.827 379.158L787.654 344.235C787.882 339.886 791.396 336.501 795.462 336.714Z" fill="#FAAD14"/>
<path fill-rule="evenodd" clip-rule="evenodd" d="M654.886 401.029L679.632 380.229C682.751 377.606 687.591 378.192 690.386 381.528L712.826 408.317C715.621 411.654 715.356 416.53 712.236 419.152L687.49 439.952C684.371 442.574 679.531 441.99 676.736 438.653L654.296 411.864C651.501 408.527 651.766 403.651 654.886 401.029Z" fill="#FAAD14"/>
<path fill-rule="evenodd" clip-rule="evenodd" d="M592.347 543.931L597.956 512.064C598.664 508.046 602.746 505.378 607.029 506.135L641.408 512.207C645.691 512.964 648.617 516.869 647.91 520.887L642.3 552.754C641.593 556.772 637.51 559.44 633.228 558.683L598.848 552.611C594.565 551.855 591.64 547.948 592.347 543.931Z" fill="#FAAD14"/>
<path fill-rule="evenodd" clip-rule="evenodd" d="M793.056 737.033L825.315 735.34C829.382 735.126 832.523 731.392 832.296 727.042L830.469 692.12C830.241 687.769 826.727 684.385 822.661 684.598L790.402 686.292C786.335 686.505 783.193 690.239 783.421 694.59L785.248 729.512C785.476 733.862 788.989 737.247 793.056 737.033Z" fill="#FAAD14"/>
<path fill-rule="evenodd" clip-rule="evenodd" d="M651.48 672.719L676.225 693.519C679.345 696.141 684.185 695.556 686.98 692.219L709.419 665.43C712.215 662.093 711.95 657.217 708.83 654.595L684.084 633.795C680.965 631.173 676.125 631.758 673.329 635.095L650.89 661.884C648.095 665.221 648.36 670.097 651.48 672.719Z" fill="#FAAD14"/>
<ellipse cx="809.178" cy="549.009" rx="109.059" ry="109.247" fill="#FFE58F"/>
<ellipse cx="809.177" cy="549.009" rx="82.3743" ry="82.5164" fill="#FAAD14"/>
<path d="M763.707 1002.5C546.065 1002.5 369 825.425 369 607.77C369 423.207 494.443 265.148 674.047 223.388C680.989 221.786 688.144 225.253 691.167 231.722C694.19 238.202 692.255 245.911 686.541 250.194C604.377 311.865 557.26 406.056 557.26 508.631C557.26 686.693 702.11 831.552 880.172 831.552C964.271 831.552 1043.94 799.315 1104.51 740.777C1109.64 735.799 1117.56 735.114 1123.49 739.145C1129.41 743.155 1131.7 750.764 1128.99 757.394C1067.93 906.294 924.559 1002.5 763.707 1002.5Z" fill="#D5D5D5"/>
<path fill-rule="evenodd" clip-rule="evenodd" d="M657.366 742C654.097 742 650.87 742.186 647.694 742.536C647.694 742.357 647.7 742.179 647.7 742C647.7 644.798 569.23 566 472.431 566C400.66 566 338.976 609.325 311.872 671.345C304.997 670.157 297.932 669.53 290.719 669.53C222.391 669.53 167 725.152 167 793.765C167 862.378 222.391 918 290.719 918H657.366C705.766 918 745 878.6 745 829.999C745 781.398 705.766 742 657.366 742Z" fill="#E4EBF7"/>
</svg>
