<svg width="758" height="180" viewBox="0 0 758 180" fill="none" xmlns="http://www.w3.org/2000/svg">
<g clip-path="url(#clip0_11349_141)">
<path d="M108.053 37.2398L30.9375 39.3584L42.8103 67.793C50.832 86.2881 67.0132 97.6881 88.3511 100.902C96.0478 101.844 102.152 101.538 107.783 100.744C102.428 102.169 93.2655 105.324 89.767 110.864C84.6984 118.906 84.3788 124.946 84.8912 137.676L88.0426 159.367C88.0426 159.367 143.093 140.502 142.971 139.272C151.032 135.165 161.081 129.224 167.477 121.84C172.287 116.296 175.036 109.926 173.334 102.903C184.248 92.8243 182.711 87.4331 168.717 86.7253C167.395 86.6622 166.017 86.6532 164.596 86.7028C164.37 83.5835 164.073 79.8781 163.72 75.5868C161.703 63.9479 154.707 53.3593 144.266 46.1695C135.49 40.1247 124.879 36.8882 114.146 36.8882C112.113 36.8882 110.08 37.0054 108.053 37.2398Z" fill="url(#paint0_linear_11349_141)"/>
<path d="M147.263 93.5096C121.606 99.4418 117.716 107.01 114.939 115.99C112.152 124.964 116.278 147.512 118.278 154.188C118.278 154.188 151.549 147.462 176.645 133.236C191.823 122.174 188.865 117.216 188.215 100.763C186.744 85.1523 184.771 73.9687 182.303 67.2207C184.65 76.6463 172.965 85.4093 147.263 93.5096Z" fill="url(#paint1_linear_11349_141)"/>
<path d="M74.5219 59.0532C81.3646 83.1919 94.7911 93.5416 119.44 95.7098C125.434 97.5399 169.328 95.6602 187.002 116.815C188.539 116.296 187.581 101.903 184.143 73.6401C180.055 59.2064 178.165 49.889 168.298 41.4957C158.43 33.0978 137.742 28.2475 125.049 26.6248L67.2109 20.5664L74.5219 59.0532Z" fill="url(#paint2_linear_11349_141)"/>
<path d="M145.683 93.9063C143.529 94.3886 141.848 94.8845 141.325 95.0242C138.521 95.7905 135.733 96.7191 134.57 97.1969C162.812 101.303 180.827 107.975 188.618 117.216C189.202 116.201 188.579 107.885 188.436 103.846C186.976 86.437 184.844 74.1761 182.227 67.0269C183.263 76.5606 173.582 85.7338 145.683 93.9063Z" fill="#FFB511"/>
<path d="M259.8 127.6C255.067 127.6 250.9 126.533 247.3 124.4C243.767 122.2 241.033 119.2 239.1 115.4C237.167 111.533 236.167 107.1 236.1 102.1L247.1 101.5C247.167 106.833 248.3 110.867 250.5 113.6C252.7 116.333 255.8 117.7 259.8 117.7C264 117.7 267.2 116.267 269.4 113.4C271.667 110.533 272.8 106.4 272.8 101V55H283.6V101C283.6 106.4 282.6 111.1 280.6 115.1C278.667 119.1 275.933 122.2 272.4 124.4C268.867 126.533 264.667 127.6 259.8 127.6ZM313.142 127.2C307.609 127.2 303.176 125.933 299.842 123.4C296.576 120.867 294.942 117.3 294.942 112.7C294.942 108.1 296.309 104.533 299.042 102C301.842 99.4 306.142 97.5333 311.942 96.4L330.242 92.9C330.242 88.7667 329.276 85.7 327.342 83.7C325.409 81.6333 322.542 80.6 318.742 80.6C315.342 80.6 312.676 81.3667 310.742 82.9C308.809 84.3667 307.476 86.5667 306.742 89.5L295.842 88.8C296.842 83.4667 299.309 79.2667 303.242 76.2C307.242 73.1333 312.409 71.6 318.742 71.6C325.942 71.6 331.409 73.5333 335.142 77.4C338.942 81.2 340.842 86.5667 340.842 93.5V114.2C340.842 115.467 341.042 116.367 341.442 116.9C341.909 117.367 342.642 117.6 343.642 117.6H345.542V126C345.209 126.067 344.676 126.133 343.942 126.2C343.209 126.267 342.442 126.3 341.642 126.3C339.376 126.3 337.409 125.933 335.742 125.2C334.142 124.467 332.942 123.267 332.142 121.6C331.342 119.867 330.942 117.567 330.942 114.7L332.042 115.2C331.509 117.533 330.342 119.6 328.542 121.4C326.809 123.2 324.576 124.633 321.842 125.7C319.176 126.7 316.276 127.2 313.142 127.2ZM314.842 118.8C318.042 118.8 320.776 118.2 323.042 117C325.309 115.733 327.076 114 328.342 111.8C329.609 109.6 330.242 107.1 330.242 104.3V100.9L314.642 103.9C311.442 104.5 309.176 105.467 307.842 106.8C306.576 108.067 305.942 109.7 305.942 111.7C305.942 113.967 306.709 115.733 308.242 117C309.842 118.2 312.042 118.8 314.842 118.8ZM365.409 126C361.942 126 359.142 125.1 357.009 123.3C354.875 121.5 353.809 118.633 353.809 114.7V55H364.409V113.7C364.409 114.9 364.709 115.8 365.309 116.4C365.975 117 366.909 117.3 368.109 117.3H372.309V126H365.409ZM396.834 127.2C391.3 127.2 386.867 125.933 383.534 123.4C380.267 120.867 378.634 117.3 378.634 112.7C378.634 108.1 380 104.533 382.734 102C385.534 99.4 389.834 97.5333 395.634 96.4L413.934 92.9C413.934 88.7667 412.967 85.7 411.034 83.7C409.1 81.6333 406.234 80.6 402.434 80.6C399.034 80.6 396.367 81.3667 394.434 82.9C392.5 84.3667 391.167 86.5667 390.434 89.5L379.534 88.8C380.534 83.4667 383 79.2667 386.934 76.2C390.934 73.1333 396.1 71.6 402.434 71.6C409.634 71.6 415.1 73.5333 418.834 77.4C422.634 81.2 424.534 86.5667 424.534 93.5V114.2C424.534 115.467 424.734 116.367 425.134 116.9C425.6 117.367 426.334 117.6 427.334 117.6H429.234V126C428.9 126.067 428.367 126.133 427.634 126.2C426.9 126.267 426.134 126.3 425.334 126.3C423.067 126.3 421.1 125.933 419.434 125.2C417.834 124.467 416.634 123.267 415.834 121.6C415.034 119.867 414.634 117.567 414.634 114.7L415.734 115.2C415.2 117.533 414.034 119.6 412.234 121.4C410.5 123.2 408.267 124.633 405.534 125.7C402.867 126.7 399.967 127.2 396.834 127.2ZM398.534 118.8C401.734 118.8 404.467 118.2 406.734 117C409 115.733 410.767 114 412.034 111.8C413.3 109.6 413.934 107.1 413.934 104.3V100.9L398.334 103.9C395.134 104.5 392.867 105.467 391.534 106.8C390.267 108.067 389.634 109.7 389.634 111.7C389.634 113.967 390.4 115.733 391.934 117C393.534 118.2 395.734 118.8 398.534 118.8ZM438.184 126V72.8H447.884L448.284 87L446.984 86.3C447.584 82.8333 448.717 80.0333 450.384 77.9C452.05 75.7667 454.084 74.2 456.484 73.2C458.884 72.1333 461.484 71.6 464.284 71.6C468.284 71.6 471.584 72.5 474.184 74.3C476.85 76.0333 478.85 78.4333 480.184 81.5C481.584 84.5 482.284 87.9333 482.284 91.8V126H471.684V95C471.684 91.8667 471.35 89.2333 470.684 87.1C470.017 84.9667 468.917 83.3333 467.384 82.2C465.85 81.0667 463.85 80.5 461.384 80.5C457.65 80.5 454.617 81.7333 452.284 84.2C449.95 86.6667 448.784 90.2667 448.784 95V126H438.184ZM498.366 126V55H509.166V88.9L539.066 55H552.166L524.966 86L553.966 126H541.266L517.766 93.6L509.166 103.2V126H498.366ZM579.908 127.2C574.708 127.2 570.208 126.067 566.408 123.8C562.674 121.533 559.774 118.3 557.708 114.1C555.708 109.9 554.708 105 554.708 99.4C554.708 93.8 555.708 88.9333 557.708 84.8C559.774 80.6 562.674 77.3667 566.408 75.1C570.141 72.7667 574.541 71.6 579.608 71.6C584.408 71.6 588.641 72.7333 592.308 75C595.974 77.2 598.808 80.4 600.808 84.6C602.874 88.8 603.908 93.8667 603.908 99.8V102.5H565.708C565.974 107.7 567.341 111.6 569.808 114.2C572.341 116.8 575.741 118.1 580.008 118.1C583.141 118.1 585.741 117.367 587.808 115.9C589.874 114.433 591.308 112.467 592.108 110L603.108 110.7C601.708 115.633 598.941 119.633 594.808 122.7C590.741 125.7 585.774 127.2 579.908 127.2ZM565.708 94.5H592.708C592.374 89.7667 591.008 86.2667 588.608 84C586.274 81.7333 583.274 80.6 579.608 80.6C575.808 80.6 572.674 81.8 570.208 84.2C567.808 86.5333 566.308 89.9667 565.708 94.5ZM614.648 126V72.8H624.348L624.748 86.9L623.848 86.6C624.582 81.8 626.048 78.3 628.248 76.1C630.515 73.9 633.548 72.8 637.348 72.8H642.448V82.3H637.348C634.682 82.3 632.448 82.7333 630.648 83.6C628.848 84.4667 627.482 85.8 626.548 87.6C625.682 89.4 625.248 91.7333 625.248 94.6V126H614.648ZM641.319 141V132.3H646.119C647.919 132.3 649.319 131.9 650.319 131.1C651.385 130.3 651.919 128.767 651.919 126.5V72.8H662.619V126.9C662.619 131.967 661.452 135.567 659.119 137.7C656.852 139.9 653.052 141 647.719 141H641.319ZM651.819 65.1V54.5H662.819V65.1H651.819ZM691.56 127.2C686.027 127.2 681.593 125.933 678.26 123.4C674.993 120.867 673.36 117.3 673.36 112.7C673.36 108.1 674.727 104.533 677.46 102C680.26 99.4 684.56 97.5333 690.36 96.4L708.66 92.9C708.66 88.7667 707.693 85.7 705.76 83.7C703.827 81.6333 700.96 80.6 697.16 80.6C693.76 80.6 691.093 81.3667 689.16 82.9C687.227 84.3667 685.893 86.5667 685.16 89.5L674.26 88.8C675.26 83.4667 677.727 79.2667 681.66 76.2C685.66 73.1333 690.827 71.6 697.16 71.6C704.36 71.6 709.827 73.5333 713.56 77.4C717.36 81.2 719.26 86.5667 719.26 93.5V114.2C719.26 115.467 719.46 116.367 719.86 116.9C720.327 117.367 721.06 117.6 722.06 117.6H723.96V126C723.627 126.067 723.093 126.133 722.36 126.2C721.627 126.267 720.86 126.3 720.06 126.3C717.793 126.3 715.827 125.933 714.16 125.2C712.56 124.467 711.36 123.267 710.56 121.6C709.76 119.867 709.36 117.567 709.36 114.7L710.46 115.2C709.927 117.533 708.76 119.6 706.96 121.4C705.227 123.2 702.993 124.633 700.26 125.7C697.593 126.7 694.693 127.2 691.56 127.2ZM693.26 118.8C696.46 118.8 699.193 118.2 701.46 117C703.727 115.733 705.493 114 706.76 111.8C708.027 109.6 708.66 107.1 708.66 104.3V100.9L693.06 103.9C689.86 104.5 687.593 105.467 686.26 106.8C684.993 108.067 684.36 109.7 684.36 111.7C684.36 113.967 685.127 115.733 686.66 117C688.26 118.2 690.46 118.8 693.26 118.8Z" fill="#FC8100"/>
</g>
<defs>
<linearGradient id="paint0_linear_11349_141" x1="49.6289" y1="105.029" x2="144.937" y2="90.4357" gradientUnits="userSpaceOnUse">
<stop stop-color="#FFBA00"/>
<stop offset="1" stop-color="#FA5800"/>
</linearGradient>
<linearGradient id="paint1_linear_11349_141" x1="182.617" y1="88.5937" x2="132.579" y2="167.125" gradientUnits="userSpaceOnUse">
<stop stop-color="#FFF75D"/>
<stop offset="1" stop-color="#F89800"/>
</linearGradient>
<linearGradient id="paint2_linear_11349_141" x1="69.1791" y1="21.9727" x2="161.651" y2="119.375" gradientUnits="userSpaceOnUse">
<stop stop-color="#FFF75D"/>
<stop offset="1" stop-color="#F89600"/>
</linearGradient>
<clipPath id="clip0_11349_141">
<rect width="758" height="180" fill="white"/>
</clipPath>
</defs>
</svg>
