<svg width="1412" height="1226" viewBox="0 0 1412 1226" fill="none" xmlns="http://www.w3.org/2000/svg">
<path fill-rule="evenodd" clip-rule="evenodd" d="M1206.37 606.193L1177.41 634.163C1173.76 637.689 1167.69 637.383 1163.93 633.484L1133.7 602.183C1129.93 598.284 1129.84 592.209 1133.49 588.683L1162.45 560.713C1166.11 557.187 1172.17 557.492 1175.94 561.391L1206.17 592.692C1209.93 596.591 1210.02 602.667 1206.37 606.193Z" fill="#FAAD14"/>
<path fill-rule="evenodd" clip-rule="evenodd" d="M1242.07 421.81L1242.77 462.068C1242.86 467.143 1238.5 471.373 1233.08 471.468L1189.57 472.227C1184.15 472.322 1179.64 468.247 1179.55 463.171L1178.85 422.913C1178.76 417.838 1183.12 413.608 1188.54 413.513L1232.05 412.754C1237.47 412.659 1241.98 416.735 1242.07 421.81Z" fill="#FAAD14"/>
<path fill-rule="evenodd" clip-rule="evenodd" d="M1138.09 251.483L1172.96 271.615C1177.36 274.153 1178.73 280.071 1176.02 284.765L1154.27 322.449C1151.56 327.143 1145.74 328.907 1141.35 326.369L1106.48 306.237C1102.08 303.699 1100.7 297.782 1103.41 293.087L1125.17 255.403C1127.88 250.71 1133.69 248.945 1138.09 251.483Z" fill="#FAAD14"/>
<path fill-rule="evenodd" clip-rule="evenodd" d="M978.63 211.972L1018.84 214.079C1023.91 214.345 1027.82 218.992 1027.54 224.404L1025.26 267.858C1024.98 273.271 1020.6 277.483 1015.53 277.217L975.321 275.11C970.252 274.844 966.336 270.198 966.62 264.785L968.897 221.331C969.181 215.918 973.561 211.706 978.63 211.972Z" fill="#FAAD14"/>
<path fill-rule="evenodd" clip-rule="evenodd" d="M803.411 291.998L834.255 266.117C838.144 262.854 844.176 263.582 847.66 267.734L875.63 301.067C879.114 305.22 878.784 311.287 874.895 314.549L844.051 340.431C840.162 343.694 834.13 342.966 830.646 338.814L802.676 305.48C799.192 301.328 799.522 295.261 803.411 291.998Z" fill="#FAAD14"/>
<path fill-rule="evenodd" clip-rule="evenodd" d="M725.458 469.812L732.45 430.159C733.331 425.16 738.42 421.841 743.758 422.782L786.611 430.338C791.949 431.279 795.595 436.139 794.714 441.138L787.722 480.791C786.841 485.79 781.752 489.11 776.413 488.168L733.561 480.612C728.223 479.671 724.577 474.811 725.458 469.812Z" fill="#FAAD14"/>
<circle cx="995.725" cy="476.13" r="135.936" fill="#FFE58F"/>
<circle cx="995.726" cy="476.13" r="102.675" fill="#FAAD14"/>
<path fill-rule="evenodd" clip-rule="evenodd" d="M329.942 403.332C332.723 403.332 335.466 403.489 338.168 403.786C338.168 403.634 338.162 403.483 338.162 403.332C338.162 321.006 404.901 254.268 487.227 254.268C548.267 254.268 600.728 290.962 623.781 343.49C629.627 342.484 635.637 341.952 641.771 341.952C699.884 341.952 746.993 389.062 746.993 447.174C746.993 505.286 699.884 552.396 641.771 552.396H329.942C288.779 552.396 255.41 519.027 255.41 477.864C255.41 436.701 288.779 403.332 329.942 403.332Z" fill="#597EF7"/>
<path fill-rule="evenodd" clip-rule="evenodd" d="M926.226 644.558C921.479 644.558 916.796 644.826 912.185 645.333C912.185 645.074 912.194 644.817 912.194 644.558C912.194 504.037 798.28 390.123 657.759 390.123C553.571 390.123 464.025 452.756 424.677 542.416C414.698 540.697 404.44 539.791 393.97 539.791C294.779 539.791 214.369 620.201 214.369 719.392C214.369 818.583 294.779 898.993 393.97 898.993H926.226C996.486 898.993 1053.44 842.036 1053.44 771.776C1053.44 701.515 996.486 644.558 926.226 644.558Z" fill="#E4EBF7"/>
<path fill-rule="evenodd" clip-rule="evenodd" d="M989.284 842.792C986.922 842.792 984.591 842.926 982.295 843.178C982.295 843.049 982.3 842.921 982.3 842.792C982.3 772.716 925.604 715.908 855.664 715.908C803.809 715.908 759.241 747.143 739.657 791.855C734.69 790.998 729.585 790.546 724.374 790.546C675.006 790.546 634.984 830.646 634.984 880.111C634.984 929.576 675.006 969.675 724.374 969.675H989.284C1024.25 969.675 1052.6 941.271 1052.6 906.233C1052.6 871.195 1024.25 842.792 989.284 842.792Z" fill="#FAAD14"/>
</svg>
