<svg width="1412" height="1226" viewBox="0 0 1412 1226" fill="none" xmlns="http://www.w3.org/2000/svg">
<path fill-rule="evenodd" clip-rule="evenodd" d="M486.343 751.436C483.521 751.436 480.735 751.595 477.993 751.897C477.993 751.743 477.999 751.59 477.999 751.436C477.999 667.764 410.253 599.936 326.686 599.936C264.725 599.936 211.471 637.23 188.071 690.617C182.136 689.593 176.036 689.053 169.809 689.053C110.82 689.053 63 736.932 63 795.994C63 855.057 110.82 902.936 169.809 902.936H486.343C528.128 902.936 562 869.021 562 827.186C562 785.35 528.128 751.436 486.343 751.436Z" fill="#E4EBF7"/>
<path fill-rule="evenodd" clip-rule="evenodd" d="M1273.31 591.5C1270.48 591.5 1267.7 591.66 1264.96 591.962C1264.96 591.807 1264.96 591.654 1264.96 591.5C1264.96 507.829 1197.22 440 1113.65 440C1051.69 440 998.434 477.294 975.034 530.681C969.099 529.657 962.999 529.118 956.772 529.118C897.783 529.118 849.963 576.997 849.963 636.059C849.963 695.121 897.783 743 956.772 743H1273.31C1315.09 743 1348.96 709.086 1348.96 667.25C1348.96 625.414 1315.09 591.5 1273.31 591.5Z" fill="#E4EBF7"/>
<path fill-rule="evenodd" clip-rule="evenodd" d="M941.8 777.678L908.436 809.898C904.229 813.96 897.239 813.608 892.902 809.117L858.082 773.059C853.744 768.568 853.637 761.569 857.843 757.508L891.207 725.288C895.414 721.226 902.404 721.577 906.742 726.069L941.562 762.126C945.899 766.617 946.007 773.616 941.8 777.678Z" fill="#FAAD14"/>
<path fill-rule="evenodd" clip-rule="evenodd" d="M982.915 565.279L983.724 611.654C983.826 617.501 978.802 622.373 972.559 622.482L922.441 623.357C916.198 623.466 911.006 618.772 910.904 612.926L910.095 566.55C909.993 560.704 915.018 555.831 921.261 555.722L971.379 554.847C977.621 554.738 982.813 559.433 982.915 565.279Z" fill="#FAAD14"/>
<path fill-rule="evenodd" clip-rule="evenodd" d="M863.138 369.071L903.306 392.263C908.37 395.186 909.959 402.003 906.837 407.41L881.774 450.82C878.652 456.227 871.955 458.26 866.891 455.336L826.722 432.145C821.659 429.221 820.07 422.405 823.192 416.997L848.254 373.587C851.376 368.18 858.074 366.148 863.138 369.071Z" fill="#FAAD14"/>
<path fill-rule="evenodd" clip-rule="evenodd" d="M679.448 323.556L725.767 325.984C731.607 326.29 736.117 331.642 735.79 337.877L733.166 387.934C732.84 394.169 727.795 399.021 721.956 398.715L675.637 396.288C669.797 395.982 665.287 390.629 665.614 384.394L668.237 334.337C668.564 328.102 673.609 323.25 679.448 323.556Z" fill="#FAAD14"/>
<path fill-rule="evenodd" clip-rule="evenodd" d="M477.606 415.742L513.137 385.928C517.616 382.169 524.565 383.008 528.578 387.791L560.798 426.189C564.812 430.972 564.431 437.961 559.952 441.72L524.421 471.534C519.941 475.292 512.992 474.454 508.979 469.671L476.759 431.272C472.745 426.49 473.126 419.5 477.606 415.742Z" fill="#FAAD14"/>
<path fill-rule="evenodd" clip-rule="evenodd" d="M387.809 620.575L395.863 574.897C396.878 569.138 402.74 565.314 408.889 566.399L458.253 575.103C464.402 576.187 468.603 581.785 467.588 587.544L459.533 633.222C458.518 638.98 452.656 642.805 446.506 641.72L397.142 633.016C390.994 631.932 386.793 626.333 387.809 620.575Z" fill="#FAAD14"/>
<path fill-rule="evenodd" clip-rule="evenodd" d="M675.993 897.361L722.312 894.933C728.152 894.627 732.661 889.275 732.335 883.04L729.711 832.983C729.385 826.748 724.34 821.896 718.501 822.202L672.182 824.629C666.342 824.935 661.832 830.288 662.159 836.523L664.782 886.58C665.109 892.815 670.154 897.667 675.993 897.361Z" fill="#FAAD14"/>
<path fill-rule="evenodd" clip-rule="evenodd" d="M474.151 805.175L509.682 834.989C514.161 838.748 521.11 837.909 525.123 833.126L557.343 794.728C561.357 789.945 560.976 782.956 556.497 779.197L520.966 749.383C516.486 745.625 509.537 746.463 505.524 751.246L473.304 789.645C469.29 794.427 469.671 801.417 474.151 805.175Z" fill="#FAAD14"/>
<circle cx="699.144" cy="627.853" r="156.591" fill="#FFE58F"/>
<circle cx="699.145" cy="627.852" r="118.276" fill="#FAAD14"/>
</svg>
