<svg width="314" height="367" viewBox="0 0 314 367" fill="none" xmlns="http://www.w3.org/2000/svg">
<path d="M247.337 18.333H105.822C101.395 18.333 97.8066 21.91 97.8066 26.3225V244.368C97.8066 248.78 101.395 252.357 105.822 252.357H281.822C286.249 252.357 289.837 248.78 289.837 244.368V61.0233L247.337 18.333Z" fill="#597EF7"/>
<path d="M247.338 18L247.405 53.0504C247.405 57.4628 250.993 61.0398 255.42 61.0398H289.838" fill="#E4EBF7"/>
<path d="M183.226 39.6978H42.0347C37.6081 39.6978 34.0195 43.2748 34.0195 47.6872V265.732C34.0195 270.145 37.6081 273.722 42.0347 273.722H218.369C222.796 273.722 226.384 270.145 226.384 265.732V86.3794H195.582C191.157 86.3794 183.226 82.8041 183.226 78.39V39.6978Z" fill="#E4EBF7"/>
<path d="M92.3082 60.9795H60.5528C57.5173 60.9795 55.0566 63.4402 55.0566 66.4756V98.0937C55.0566 101.129 57.5173 103.59 60.5528 103.59H92.3082C95.3436 103.59 97.8043 101.129 97.8043 98.0937V66.4756C97.8043 63.4402 95.3436 60.9795 92.3082 60.9795Z" fill="#597EF7"/>
<path d="M202.678 124.896H57.0524C55.9502 124.896 55.0566 125.789 55.0566 126.891V133.552C55.0566 134.655 55.9502 135.548 57.0524 135.548H202.678C203.78 135.548 204.673 134.655 204.673 133.552V126.891C204.673 125.789 203.78 124.896 202.678 124.896Z" fill="#597EF7"/>
<path d="M202.678 156.817H57.0524C55.9502 156.817 55.0566 157.71 55.0566 158.813V165.474C55.0566 166.576 55.9502 167.469 57.0524 167.469H202.678C203.78 167.469 204.673 166.576 204.673 165.474V158.813C204.673 157.71 203.78 156.817 202.678 156.817Z" fill="#FF7946"/>
<path d="M202.678 188.774H57.0524C55.9502 188.774 55.0566 189.668 55.0566 190.77V197.431C55.0566 198.533 55.9502 199.427 57.0524 199.427H202.678C203.78 199.427 204.673 198.533 204.673 197.431V190.77C204.673 189.668 203.78 188.774 202.678 188.774Z" fill="#FAAD14"/>
<path d="M183.227 39.6978V78.39C183.227 82.8024 186.815 86.3794 191.242 86.3794H226.385" fill="white"/>
<ellipse cx="154" cy="330" rx="129" ry="19" fill="#6D6D6D" fill-opacity="0.1"/>
</svg>
