<svg width="314" height="367" viewBox="0 0 314 367" fill="none" xmlns="http://www.w3.org/2000/svg">
<path fill-rule="evenodd" clip-rule="evenodd" d="M192.249 130.879H191.928V51.688H131.088V130.879H130.727L51.1386 254.748C45.6551 263.283 51.7795 274.507 61.9201 274.507H131.088H191.928H261.056C271.196 274.507 277.321 263.283 271.837 254.748L192.249 130.879Z" fill="#E4EBF7"/>
<path fill-rule="evenodd" clip-rule="evenodd" d="M196.138 59.017H127.293C123.405 59.017 120.254 55.8747 120.254 51.9982V35.2981C120.254 31.4216 123.405 28.2793 127.293 28.2793H196.138C200.025 28.2793 203.176 31.4216 203.176 35.2981V51.9982C203.176 55.8747 200.025 59.017 196.138 59.017Z" fill="#A3B5D6"/>
<path fill-rule="evenodd" clip-rule="evenodd" d="M74.9319 245.781C70.6299 252.479 75.4345 261.289 83.3895 261.289H137.652H185.381H239.61C247.565 261.289 252.37 252.479 248.068 245.781L210.024 186.539H112.976L74.9319 245.781Z" fill="#597EF7"/>
<path fill-rule="evenodd" clip-rule="evenodd" d="M211.43 221.578C211.43 228.674 205.678 234.426 198.582 234.426C191.486 234.426 185.734 228.674 185.734 221.578C185.734 214.482 191.486 208.73 198.582 208.73C205.678 208.73 211.43 214.482 211.43 221.578Z" fill="white"/>
<path fill-rule="evenodd" clip-rule="evenodd" d="M129.672 234.426C129.672 241.521 123.92 247.273 116.824 247.273C109.729 247.273 103.977 241.521 103.977 234.426C103.977 227.33 109.729 221.578 116.824 221.578C123.92 221.578 129.672 227.33 129.672 234.426Z" fill="white"/>
<path fill-rule="evenodd" clip-rule="evenodd" d="M163.544 205.811C163.544 209.197 160.864 211.942 157.558 211.942C154.252 211.942 151.572 209.197 151.572 205.811C151.572 202.424 154.252 199.679 157.558 199.679C160.864 199.679 163.544 202.424 163.544 205.811Z" fill="white"/>
<ellipse cx="154.29" cy="330.537" rx="124.023" ry="18.2669" fill="#6D6D6D" fill-opacity="0.1"/>
</svg>
