<svg width="314" height="367" viewBox="0 0 314 367" fill="none" xmlns="http://www.w3.org/2000/svg">
<g clip-path="url(#clip0_11349_181)">
<ellipse cx="154" cy="330" rx="129" ry="19" fill="#6D6D6D" fill-opacity="0.1"/>
<ellipse cx="158" cy="330" rx="129" ry="19" fill="#6D6D6D" fill-opacity="0.1"/>
<path d="M98.2712 117.402L60.9668 145.066H247.194L209.684 117.402H98.2712Z" fill="#E4EBF7"/>
<path d="M209.686 145.04L247.195 145.066L209.686 117.402V145.04Z" fill="#A3B5D6"/>
<path d="M92.832 68.2331L124.628 250.23C125.355 254.396 129.328 257.189 133.494 256.458L147.651 253.986C151.817 253.254 154.61 249.285 153.878 245.119L122.087 63.1221L92.832 68.2331Z" fill="#FFA940"/>
<path d="M97.1235 37.3576L92.8379 68.2507L122.089 63.1397L108.398 35.3901L97.1235 37.3576Z" fill="#FFE7BA"/>
<path d="M100.479 23.8117C100.222 23.8544 100.017 24.0597 99.9697 24.3164L97.4805 37.3143L108.173 35.4452L101.142 24.1025C101.022 23.9143 100.817 23.7988 100.598 23.7988C100.556 23.7988 100.517 23.8031 100.479 23.8117Z" fill="#253368"/>
<path d="M101.658 66.7966L134.754 256.24L146.696 254.153L113.604 64.7051L101.658 66.7966Z" fill="#FE9921"/>
<path d="M142.367 241.898L141.863 256.393C141.704 260.876 145.212 264.635 149.694 264.789C154.176 264.947 157.936 261.44 158.094 256.962L158.594 242.463L142.372 241.898H142.367Z" fill="#253368"/>
<path d="M157.228 24.9666L156.334 30.0947C156.137 31.2153 156.894 32.2889 158.015 32.4813C159.14 32.6781 160.209 31.9253 160.406 30.8005L161.3 25.6723C161.496 24.5474 160.743 23.4781 159.619 23.2814C159.499 23.2643 159.379 23.2515 159.259 23.2515C158.276 23.2515 157.403 23.9572 157.228 24.9666Z" fill="#50548B"/>
<path d="M111.978 228.568C111.246 232.738 114.043 236.707 118.213 237.434L126.609 238.897C130.779 239.619 134.749 236.831 135.471 232.661L166.164 56.4462L142.665 52.353L111.978 228.568Z" fill="#597EF7"/>
<path d="M155.143 30.0519L142.662 52.3524L166.173 56.4498L161.588 31.1553C161.49 30.625 161.071 30.2058 160.536 30.1203L156.481 29.4146C156.409 29.4017 156.336 29.3975 156.263 29.3975C155.805 29.3975 155.374 29.6413 155.143 30.0519Z" fill="#E4EBF7"/>
<path d="M57.1788 48.8497L49.0952 54.4697C48.1714 55.1113 47.8292 56.3174 48.2783 57.3482L53.1798 68.5712C53.6973 69.7688 55.0916 70.3119 56.2892 69.7901L65.1384 65.928C66.336 65.4019 66.8835 64.0118 66.3617 62.8143L60.6988 49.8377C60.4166 49.1919 59.8563 48.7043 59.1719 48.5118C58.9666 48.4562 58.7485 48.4263 58.5389 48.4263C58.0556 48.4263 57.5851 48.5674 57.1788 48.8497Z" fill="#FF7946"/>
<path d="M55.8145 100.41L117.096 240.808L150.247 226.339L88.9659 85.9404L55.8145 100.41Z" fill="#FF7946"/>
<path d="M55.8145 100.41L61.1822 112.698L94.3336 98.2327L88.9659 85.9404L55.8145 100.41Z" fill="#253368"/>
<path d="M51.6953 66.5651L52.5165 92.8434L55.8141 100.409L88.9655 85.9402L85.6893 78.434L65.9293 60.3506L51.6953 66.5651Z" fill="#E4EBF7"/>
<path d="M52.5078 92.9756L55.8097 100.537L88.9569 86.0639L85.655 78.5063L52.5078 92.9756Z" fill="#F5F5F5"/>
<path d="M96.4692 126.131L78.882 127.346C78.4457 127.376 78.0479 127.62 77.8213 127.996C77.5903 128.368 77.5604 128.834 77.7357 129.241L77.8512 129.502C78.0822 130.028 78.6168 130.353 79.1899 130.31L85.1136 129.874C85.6868 129.831 86.2257 130.16 86.4566 130.686L87.9622 134.138C89.8227 138.402 92.885 140.34 97.0295 139.959C101.174 139.583 102.329 137.303 100.528 133.176L97.8037 126.944C97.5855 126.448 97.0937 126.131 96.5548 126.131C96.5291 126.131 96.4992 126.131 96.4692 126.131ZM92.7525 136.452C91.9826 135.913 91.294 135.011 90.7422 133.745L89.6944 131.345C89.519 130.943 89.5489 130.481 89.7756 130.105C90.0023 129.728 90.4001 129.485 90.8363 129.455L94.8397 129.16C95.4128 129.121 95.9474 129.442 96.1784 129.968L97.5812 133.188C98.1202 134.416 98.2399 135.366 97.979 135.986C97.7138 136.606 97.0038 136.995 95.7763 137.102C95.5753 137.119 95.37 137.128 95.1775 137.128C94.2152 137.128 93.3897 136.905 92.7525 136.452Z" fill="white"/>
<path d="M103.308 141.875L85.9177 143.539C85.49 143.582 85.1008 143.826 84.8827 144.198C84.6603 144.57 84.6346 145.027 84.8014 145.421L89.4121 155.981C89.6516 156.524 90.2162 156.849 90.8064 156.781C91.2298 156.734 91.6105 156.481 91.8244 156.114C92.0382 155.741 92.0639 155.292 91.8885 154.899L88.8946 148.03C88.7278 147.632 88.7534 147.179 88.9716 146.807C89.1897 146.439 89.5746 146.191 90.0023 146.152L93.2957 145.853C93.8773 145.797 94.4248 146.118 94.66 146.653L97.855 153.966C98.0945 154.51 98.6634 154.839 99.2536 154.775C99.677 154.724 100.053 154.471 100.272 154.099C100.481 153.731 100.507 153.278 100.336 152.884L97.8379 147.162C97.6668 146.764 97.6967 146.311 97.9149 145.943C98.133 145.575 98.5179 145.327 98.9456 145.284L101.717 145.006C102.299 144.95 102.851 145.267 103.086 145.802L106.478 153.564C106.717 154.112 107.282 154.433 107.872 154.364C108.3 154.313 108.68 154.065 108.89 153.688C109.104 153.308 109.125 152.854 108.941 152.461L104.668 142.675C104.45 142.179 103.967 141.867 103.437 141.867C103.394 141.867 103.351 141.871 103.308 141.875Z" fill="white"/>
<path d="M61.4609 178.833V267.95C61.4609 271.795 64.5789 274.913 68.424 274.913H240.143C243.988 274.913 247.106 271.795 247.106 267.95V178.833H61.4609Z" fill="#597EF7"/>
<path d="M61.459 158.509V210.432L247.104 195.625V158.509H61.459Z" fill="#3D60E0"/>
<g clip-path="url(#clip1_11349_181)">
<path d="M167.763 156.456C179.008 162.949 193.587 158.773 200.306 147.136L212.477 126.055L192.106 114.294C180.861 107.801 166.282 111.977 159.563 123.613C152.845 135.25 156.518 149.964 167.763 156.456Z" fill="#0ACF83"/>
<path d="M208.372 39.0756C215.113 27.3995 229.71 23.1925 240.955 29.6848L261.327 41.4463L236.902 83.7507L216.531 71.9893C205.286 65.4969 201.631 50.7516 208.372 39.0756Z" fill="#F24E1E"/>
<path d="M261.326 41.4463L281.698 53.2077C292.943 59.7001 296.598 74.4454 289.857 86.1214C283.116 97.7975 268.518 102.005 257.273 95.5122L236.902 83.7507L261.326 41.4463Z" fill="#FF7262"/>
<path d="M265.515 128.284C258.774 139.96 244.176 144.167 232.931 137.675C221.686 131.182 218.031 116.437 224.772 104.761C231.513 93.0851 246.111 88.878 257.356 95.3703C268.601 101.863 272.256 116.608 265.515 128.284Z" fill="#1ABCFE"/>
<path d="M184.03 81.2382C190.771 69.5621 205.369 65.3551 216.614 71.8474L236.985 83.6089L212.561 125.913L192.189 114.152C180.944 107.66 177.289 92.9142 184.03 81.2382Z" fill="#A259FF"/>
</g>
<path d="M60.9804 145.066L42.8671 184.915C42.1785 186.357 42.2726 188.046 43.1195 189.398C43.9706 190.745 45.4547 191.566 47.0458 191.57H260.834C262.464 191.57 263.978 190.715 264.816 189.316C265.655 187.918 265.702 186.181 264.94 184.748L247.195 145.066H60.9804Z" fill="#E4EBF7"/>
</g>
<defs>
<clipPath id="clip0_11349_181">
<rect width="314" height="367" fill="white"/>
</clipPath>
<clipPath id="clip1_11349_181">
<rect width="167.295" height="167.295" fill="white" transform="translate(194.119 -9.42969) rotate(30)"/>
</clipPath>
</defs>
</svg>
